<?xml version="1.0" encoding="UTF-8"?>
<svg xmlns="http://www.w3.org/2000/svg" xmlns:xlink="http://www.w3.org/1999/xlink" width="24px" height="21px" viewBox="0 0 24 21" version="1.1">
<g id="surface1">
<path style=" stroke:none;fill-rule:nonzero;fill:rgb(100%,100%,100%);fill-opacity:1;" d="M 0 1.96875 C 0 1.605469 0.335938 1.3125 0.75 1.3125 L 3.042969 1.3125 C 3.386719 1.3125 3.6875 1.519531 3.769531 1.808594 L 4.335938 5.25 L 21.75 5.25 C 21.980469 5.25 22.199219 5.34375 22.339844 5.503906 C 22.484375 5.660156 22.535156 5.867188 22.476562 6.066406 L 20.226562 13.941406 C 20.144531 14.230469 19.84375 14.4375 19.5 14.4375 L 6.585938 14.4375 L 6.175781 15.867188 C 5.917969 15.953125 5.625 15.910156 5.414062 15.75 L 3.75 15.75 C 3.335938 15.75 3 15.457031 3 15.09375 C 3 14.730469 3.335938 14.4375 3.75 14.4375 L 4.953125 14.4375 L 7.203125 6.5625 L 2.25 6.5625 C 1.835938 6.5625 1.5 6.269531 1.5 5.90625 Z M 7.652344 13.125 L 19.347656 13.125 L 21.148438 6.824219 L 6.601562 6.824219 L 5.402344 11.023438 C 5.332031 11.335938 5.015625 11.554688 4.652344 11.550781 L 2.25 11.550781 C 1.835938 11.550781 1.5 11.257812 1.5 10.894531 C 1.5 10.53125 1.835938 10.238281 2.25 10.238281 L 4.648438 10.238281 L 5.851562 6.039062 C 8.085938 5.601562 10.304688 6.835938 10.800781 8.792969 C 11.300781 10.75 9.890625 12.6875 7.652344 13.125 Z M 8.25 15.75 C 7.421875 15.75 6.75 16.335938 6.75 17.0625 C 6.75 17.789062 7.421875 18.375 8.25 18.375 C 9.078125 18.375 9.75 17.789062 9.75 17.0625 C 9.75 16.335938 9.078125 15.75 8.25 15.75 Z M 17.25 15.75 C 16.421875 15.75 15.75 16.335938 15.75 17.0625 C 15.75 17.789062 16.421875 18.375 17.25 18.375 C 18.078125 18.375 18.75 17.789062 18.75 17.0625 C 18.75 16.335938 18.078125 15.75 17.25 15.75 Z M 17.25 15.75 "/>
</g>
</svg>
