<svg width="24" height="21" viewBox="0 0 24 21" fill="none" xmlns="http://www.w3.org/2000/svg">
<path d="M0.5 1.34375C0.5 1.13655 0.58231 0.937836 0.728823 0.791323C0.875336 0.64481 1.07405 0.5625 1.28125 0.5625H3.66875C3.84302 0.562548 4.01226 0.62086 4.14958 0.728164C4.28689 0.835467 4.38439 0.9856 4.42656 1.15469L5.01562 5.25H23.1562C23.2749 5.25003 23.392 5.2771 23.4987 5.32915C23.6053 5.38119 23.6987 5.45685 23.7717 5.55037C23.8448 5.6439 23.8956 5.75284 23.9202 5.86892C23.9449 5.985 23.9428 6.10517 23.9141 6.22031L21.5703 15.5953C21.5281 15.7644 21.4306 15.9145 21.2933 16.0218C21.156 16.1291 20.9868 16.1875 20.8125 16.1875H7.35937L6.93437 17.8875C6.80206 17.9388 6.65825 17.9532 6.51841 17.9289C6.37856 17.9047 6.24796 17.8429 6.14062 17.75H4.40625C4.19905 17.75 4.00033 17.6677 3.85382 17.5212C3.70731 17.3747 3.625 17.176 3.625 16.9688C3.625 16.7615 3.70731 16.5628 3.85382 16.4163C4.00033 16.2698 4.19905 16.1875 4.40625 16.1875H5.65937L8.00312 6.8125H2.84375C2.63655 6.8125 2.43783 6.73019 2.29132 6.58368C2.14481 6.43716 2.0625 6.23845 2.0625 6.03125L0.5 1.34375ZM8.47187 14.625H20.6531L22.5281 7.125H7.37812L6.12812 12.125C6.0916 12.3041 5.99342 12.4648 5.85067 12.579C5.70792 12.6932 5.52964 12.7537 5.34687 12.75H2.84375C2.63655 12.75 2.43783 12.6677 2.29132 12.5212C2.14481 12.3747 2.0625 12.176 2.0625 11.9688C2.0625 11.7615 2.14481 11.5628 2.29132 11.4163C2.43783 11.2698 2.63655 11.1875 2.84375 11.1875H5.34375L6.59375 6.1875C7.71263 5.93845 8.88462 6.14406 9.8519 6.75913C10.8192 7.37419 11.5025 8.34831 11.7516 9.46719C12.0006 10.5861 11.795 11.7581 11.1799 12.7253C10.5649 13.6926 9.59075 14.3759 8.47187 14.625ZM9.09375 17.75C8.67935 17.75 8.28192 17.9146 7.98889 18.2076C7.69587 18.5007 7.53125 18.8981 7.53125 19.3125C7.53125 19.7269 7.69587 20.1243 7.98889 20.4174C8.28192 20.7104 8.67935 20.875 9.09375 20.875C9.50815 20.875 9.90558 20.7104 10.1986 20.4174C10.4916 20.1243 10.6562 19.7269 10.6562 19.3125C10.6562 18.8981 10.4916 18.5007 10.1986 18.2076C9.90558 17.9146 9.50815 17.75 9.09375 17.75ZM18.4687 17.75C18.0543 17.75 17.6569 17.9146 17.3639 18.2076C17.0709 18.5007 16.9062 18.8981 16.9062 19.3125C16.9062 19.7269 17.0709 20.1243 17.3639 20.4174C17.6569 20.7104 18.0543 20.875 18.4687 20.875C18.8831 20.875 19.2806 20.7104 19.5736 20.4174C19.8666 20.1243 20.0312 19.7269 20.0312 19.3125C20.0312 18.8981 19.8666 18.5007 19.5736 18.2076C19.2806 17.9146 18.8831 17.75 18.4687 17.75Z" fill="#2A2670"/>
</svg>
