<svg width="25" height="25" viewBox="0 0 25 25" fill="none" xmlns="http://www.w3.org/2000/svg">
<path fill-rule="evenodd" clip-rule="evenodd" d="M10.8663 12.4185V19.3379C10.8663 19.3857 10.8853 19.4316 10.9191 19.4654C10.9529 19.4992 10.9987 19.5182 11.0465 19.5182H13.6163C13.6641 19.5182 13.7099 19.4992 13.7437 19.4654C13.7775 19.4316 13.7965 19.3857 13.7965 19.3379V12.3073H15.6587C15.7038 12.3069 15.7472 12.2899 15.7804 12.2595C15.8137 12.2291 15.8346 12.1875 15.839 12.1426L16.017 10.0223C16.0191 9.99766 16.0161 9.97283 16.0082 9.94941C16.0002 9.92598 15.9874 9.90447 15.9707 9.88626C15.9539 9.86805 15.9336 9.85352 15.9109 9.84362C15.8882 9.83372 15.8637 9.82865 15.839 9.82875H13.7965V8.32472C13.7965 8.15537 13.8638 7.99295 13.9835 7.8732C14.1033 7.75345 14.2657 7.68617 14.4351 7.68617H15.8701C15.9179 7.68617 15.9637 7.66719 15.9975 7.63339C16.0313 7.59959 16.0503 7.55375 16.0503 7.50596V5.38786C16.0503 5.34006 16.0313 5.29422 15.9975 5.26043C15.9637 5.22663 15.9179 5.20764 15.8701 5.20764H13.445C13.1063 5.20764 12.771 5.27434 12.4582 5.40393C12.1453 5.53352 11.861 5.72346 11.6216 5.96291C11.3821 6.20236 11.1922 6.48663 11.0626 6.79949C10.933 7.11234 10.8663 7.44766 10.8663 7.7863V9.82875H9.58256C9.53476 9.82875 9.48893 9.84773 9.45513 9.88153C9.42133 9.91533 9.40234 9.96117 9.40234 10.009V12.1271C9.40234 12.1749 9.42133 12.2207 9.45513 12.2545C9.48893 12.2883 9.53476 12.3073 9.58256 12.3073H10.8663V12.4185Z" fill="white"/>
<path d="M20.4781 1.95916C21.1811 1.96034 21.855 2.24013 22.3521 2.73724C22.8492 3.23434 23.129 3.90822 23.1302 4.61124V20.1143C23.129 20.8173 22.8492 21.4912 22.3521 21.9883C21.855 22.4854 21.1811 22.7652 20.4781 22.7664H4.97507C4.27205 22.7652 3.59817 22.4854 3.10107 21.9883C2.60396 21.4912 2.32417 20.8173 2.32299 20.1143V4.61124C2.32417 3.90822 2.60396 3.23434 3.10107 2.73724C3.59817 2.24013 4.27205 1.96034 4.97507 1.95916H20.4781ZM20.4781 0.426208H4.97507C3.86513 0.426208 2.80065 0.86713 2.01581 1.65197C1.23096 2.43682 0.790039 3.5013 0.790039 4.61124L0.790039 20.1143C0.790039 21.2242 1.23096 22.2887 2.01581 23.0736C2.80065 23.8584 3.86513 24.2993 4.97507 24.2993H20.4781C21.5881 24.2993 22.6525 23.8584 23.4374 23.0736C24.2222 22.2887 24.6632 21.2242 24.6632 20.1143V4.61124C24.6632 3.5013 24.2222 2.43682 23.4374 1.65197C22.6525 0.86713 21.5881 0.426208 20.4781 0.426208Z" fill="white"/>
</svg>
