<svg width="27" height="27" viewBox="0 0 27 27" fill="none" xmlns="http://www.w3.org/2000/svg">
<path d="M19.3416 2.51196H8.49016C5.49363 2.51196 3.06445 4.94114 3.06445 7.93767V18.7891C3.06445 21.7856 5.49363 24.2148 8.49016 24.2148H19.3416C22.3381 24.2148 24.7673 21.7856 24.7673 18.7891V7.93767C24.7673 4.94114 22.3381 2.51196 19.3416 2.51196Z" stroke="white" stroke-width="2.17028" stroke-linecap="round" stroke-linejoin="round"/>
<path d="M18.2572 12.6796C18.3912 13.5827 18.2369 14.505 17.8164 15.3154C17.3959 16.1258 16.7306 16.783 15.9151 17.1934C15.0996 17.6039 14.1754 17.7468 13.274 17.6017C12.3726 17.4567 11.5399 17.0311 10.8944 16.3855C10.2488 15.74 9.82322 14.9073 9.67818 14.0059C9.53313 13.1045 9.67601 12.1803 10.0865 11.3648C10.4969 10.5493 11.1541 9.88398 11.9645 9.46349C12.7749 9.043 13.6972 8.88874 14.6003 9.02266C15.5215 9.15927 16.3744 9.58852 17.0329 10.247C17.6914 10.9055 18.1206 11.7584 18.2572 12.6796Z" stroke="white" stroke-width="2.17028" stroke-linecap="round" stroke-linejoin="round"/>
<circle cx="19.884" cy="7.39514" r="1.08514" fill="white"/>
</svg>
