<?xml version="1.0" encoding="UTF-8"?>
<svg xmlns="http://www.w3.org/2000/svg" xmlns:xlink="http://www.w3.org/1999/xlink" width="25px" height="25px" viewBox="0 0 25 25" version="1.1">
<g id="surface1">
<path style="fill:none;stroke-width:1.89;stroke-linecap:butt;stroke-linejoin:miter;stroke:rgb(100%,100%,100%);stroke-opacity:1;stroke-miterlimit:10;" d="M 12.94125 1.60875 L 12.94125 15.78 C 12.94125 17.34375 11.67375 18.61125 10.11 18.61125 C 8.54625 18.61125 7.27875 17.34375 7.27875 15.78 C 7.27875 14.21625 8.54625 12.945 10.11 12.94125 L 10.11 9.16875 C 6.46125 9.16875 3.49875 12.13125 3.49875 15.78 C 3.49875 19.42875 6.46125 22.39125 10.11 22.39125 C 13.75875 22.39125 16.72125 19.42875 16.72125 15.78 L 16.72125 9.16875 L 16.92 9.27 C 18.03375 9.82125 19.25625 10.11 20.50125 10.11 L 20.50125 6.33 L 20.38875 6.33 C 18.2325 5.79375 16.7175 3.855 16.72125 1.63125 L 12.94125 1.63125 Z M 12.94125 1.60875 " transform="matrix(1.041667,0,0,1.041667,0,0)"/>
</g>
</svg>
