<svg width="131" height="50" viewBox="0 0 131 50" fill="none" xmlns="http://www.w3.org/2000/svg">
<path d="M27.9751 0.493401C26.2642 0.723089 24.8298 1.04653 23.7329 1.46371C23.4892 1.55278 23.1095 1.68871 22.8845 1.76371C22.6642 1.83403 22.2142 2.0309 21.8767 2.19496C21.1548 2.55121 21.1173 2.57465 20.7564 2.8184C20.6017 2.92153 20.2735 3.10903 20.0298 3.2309C19.6126 3.44184 19.2048 3.6809 19.0454 3.80746C18.647 4.11684 18.3704 4.36528 18.2626 4.51059C18.1923 4.60903 18.122 4.69809 18.1079 4.71215C18.061 4.75903 17.9157 5.02621 17.6626 5.5184C17.3345 6.16528 17.1095 6.4559 16.472 7.05121C16.186 7.3184 15.8532 7.66528 15.7314 7.82465C15.6142 7.97934 15.3095 8.31215 15.061 8.5559C14.6064 9.00122 14.3251 9.33872 13.936 9.91528C13.8235 10.084 13.6314 10.3372 13.5142 10.4778C13.1907 10.8575 13.0642 11.059 12.4735 12.1418C11.9017 13.1918 11.611 13.7778 11.3298 14.4153C11.236 14.6356 11.1189 14.8981 11.0767 15.0012C11.0298 15.1043 10.8517 15.545 10.6782 15.9856C10.1204 17.3965 10.0126 17.5606 9.57666 17.6215C8.76104 17.7387 8.38604 17.8559 8.16573 18.0762C8.01573 18.2262 7.75791 18.6528 7.65479 18.9247C7.60323 19.0606 7.5376 19.2153 7.51416 19.2668C7.49073 19.3184 7.4251 19.4965 7.36885 19.6653C7.24698 20.0168 7.07354 20.2653 6.93291 20.2981C6.88135 20.3122 6.61416 20.3403 6.34229 20.3684C5.42823 20.4575 4.89385 20.6684 4.59385 21.0481C4.41573 21.2731 4.20479 21.7465 4.16729 22.009C4.15323 22.1262 4.10635 22.445 4.06885 22.7215C3.99385 23.2793 3.85323 23.8512 3.60948 24.5872C3.4876 24.9528 3.42666 25.2575 3.37041 25.759C3.27666 26.5747 3.27666 26.8325 3.36104 27.1418C3.52979 27.7747 3.80166 28.0418 4.80948 28.5715C4.93135 28.6372 5.1001 28.759 5.18448 28.8434L5.32979 28.9981L5.3626 29.9918C5.40479 31.2997 5.46573 31.5481 5.79854 31.8434C6.00479 32.0262 6.64698 32.2325 7.57041 32.4153C7.94541 32.4903 8.45166 32.6168 8.69541 32.6965C9.0376 32.809 9.24385 32.8465 9.67041 32.87C11.0298 32.9356 11.5079 32.584 11.9626 31.1872C12.1735 30.5309 12.3048 30.0434 12.3845 29.6028C12.4173 29.434 12.4642 29.2043 12.4876 29.0872C12.5157 28.97 12.586 28.5997 12.647 28.2668C12.7079 27.9293 12.8579 27.1934 12.9704 26.6262C13.0876 26.059 13.186 25.5012 13.186 25.384C13.186 25.2668 13.2095 25.0981 13.2329 25.009C13.261 24.92 13.322 24.634 13.3735 24.3762C13.4251 24.1184 13.5751 23.42 13.7064 22.8293C14.0767 21.1418 14.0814 21.1231 14.1329 20.6778C14.1985 20.0825 14.1564 19.5856 14.011 19.295C13.9454 19.1684 13.7673 18.9247 13.6126 18.7512C13.4626 18.5825 13.2798 18.32 13.2095 18.1747C13.0829 17.9168 13.0782 17.9028 13.1345 17.5372C13.2235 16.97 13.5798 16.0934 14.1001 15.1653C14.222 14.945 14.386 14.6497 14.461 14.509C14.5407 14.3684 14.6532 14.1856 14.7142 14.1012C14.7751 14.0215 14.8267 13.9372 14.8267 13.9137C14.8267 13.8903 14.8876 13.8012 14.9579 13.7122C15.0282 13.6231 15.2532 13.2622 15.4595 12.9153C15.7735 12.3715 16.0735 11.9403 16.261 11.7668C16.2892 11.7434 16.4251 11.5606 16.5657 11.3684C16.8657 10.9512 17.3439 10.3512 17.4095 10.3137C17.4329 10.295 17.6579 10.0372 17.9064 9.73715C18.4173 9.12309 18.5298 9.01059 18.9282 8.72465C19.3267 8.43871 19.7392 8.28871 20.3017 8.22778C21.2392 8.12465 21.8017 7.91371 22.5142 7.39809C22.8845 7.12621 24.5064 6.27778 24.7876 6.21215C24.8673 6.18871 25.1298 6.1184 25.3735 6.04809C26.1001 5.84184 26.9064 5.65903 27.5298 5.55121C27.8532 5.49965 28.2564 5.42465 28.4251 5.39184C28.5939 5.35434 29.1845 5.30278 29.7423 5.26996C31.0829 5.19496 31.8517 5.26059 33.4829 5.58403C34.0126 5.68715 34.1392 5.72465 35.0298 6.01059C36.422 6.46059 38.1845 7.40278 39.0423 8.15746C40.0876 9.07622 40.5845 9.55903 41.0767 10.1497C41.2173 10.3184 41.3439 10.4637 41.3579 10.4778C41.3814 10.4965 41.8032 10.9981 42.0564 11.2981C42.0985 11.3497 42.436 11.7715 42.8064 12.2356C43.6923 13.3465 43.8751 13.5153 44.4751 13.8106C44.7423 13.9372 44.9814 14.0684 45.0048 14.1012C45.0751 14.1856 45.0142 14.4106 44.9064 14.4715C44.836 14.5043 43.7907 14.5231 41.4095 14.5278C39.5392 14.5325 37.9689 14.5512 37.9267 14.5747C37.8845 14.5934 37.786 14.7809 37.7064 14.9918C37.4814 15.6059 37.2564 16.0934 36.961 16.595C36.586 17.2278 35.9204 18.4793 35.7095 18.9387C35.1845 20.0778 34.8048 20.7809 34.6079 20.9778C34.5939 20.9918 34.4532 21.17 34.2985 21.3762C33.797 22.0231 31.6595 24.1325 30.8439 24.7747C30.4079 25.1215 30.3423 25.1872 30.361 25.2903C30.3892 25.4356 30.2392 25.5668 29.5454 26.0122C29.2735 26.1856 28.9642 26.3918 28.8517 26.4668C28.7439 26.5418 28.6314 26.6028 28.6126 26.6028C28.5892 26.6028 28.561 26.6215 28.5517 26.645C28.5189 26.734 27.5157 27.3012 27.2579 27.3809C26.8173 27.5075 26.4095 27.5356 24.8579 27.5403C23.3157 27.5403 23.0673 27.5168 22.9782 27.3434C22.9126 27.2215 22.9267 27.1372 23.1892 26.0637C23.311 25.5715 23.4751 24.8965 23.5501 24.5637C23.6298 24.2262 23.7235 23.8465 23.761 23.72C23.7939 23.5887 23.9204 23.1059 24.0376 22.6418C24.272 21.7043 24.4267 21.109 24.7079 20.0637C24.947 19.1918 25.036 18.8497 25.1392 18.3997C25.2095 18.109 25.3782 17.4528 25.561 16.7825C25.8423 15.7418 26.0485 14.9122 26.0626 14.7387L26.086 14.5184H21.9657C18.4407 14.5137 17.836 14.5231 17.747 14.584C17.6251 14.659 17.6017 14.7434 17.2642 16.1731C17.0392 17.1293 16.9267 17.5653 16.7017 18.3528C16.6548 18.5215 16.3829 19.5762 16.1017 20.6965C15.8157 21.8168 15.5392 22.9043 15.4829 23.1106C15.1548 24.3293 15.0001 24.9762 14.9626 25.2434C14.9392 25.4122 14.8829 25.7168 14.8314 25.9231C14.447 27.4887 14.147 28.6606 14.0532 28.97C13.9923 29.1809 13.5939 30.7465 13.4439 31.384C13.411 31.5247 13.3079 31.9278 13.2142 32.2747C13.1204 32.6215 12.8673 33.634 12.647 34.5247C12.4267 35.4153 12.211 36.2684 12.1735 36.4231C12.1314 36.5778 12.0517 36.9059 11.9907 37.1497C11.9345 37.3981 11.8407 37.745 11.7845 37.9231C11.6251 38.4575 11.4376 39.2215 11.4142 39.4325C11.4001 39.5965 11.4095 39.634 11.4704 39.634C11.5876 39.634 11.7892 39.5215 11.9157 39.3809C11.9814 39.3153 12.047 39.259 12.0704 39.259C12.122 39.259 12.3189 39.1184 12.7407 38.7903C13.1814 38.4434 13.4954 38.2278 13.5564 38.2278C13.5845 38.2278 13.6079 38.209 13.6079 38.1903C13.6079 38.1715 13.6782 38.1153 13.7579 38.0637C13.8423 38.0168 13.9876 37.9184 14.0767 37.8434C14.3345 37.6325 14.3298 37.6325 14.7892 37.3043C15.0282 37.1309 15.511 36.7793 15.8626 36.5215C16.2142 36.259 16.6642 35.9309 16.8657 35.7903C17.2173 35.5372 17.4985 35.3262 17.6392 35.2137C17.6814 35.1809 17.8173 35.0825 17.9439 34.9934C18.4032 34.684 19.1579 34.1215 19.486 33.845C19.922 33.4793 20.2032 33.259 20.2407 33.259C20.2595 33.259 20.3298 33.2122 20.4001 33.1512C20.4704 33.095 20.5782 33.0106 20.6439 32.9684C21.0798 32.6497 22.0782 31.9184 22.1251 31.8809C22.1532 31.8528 22.2517 31.7825 22.336 31.7215C22.4204 31.6653 22.7345 31.4403 23.0298 31.2293C23.6626 30.77 24.1173 30.4559 24.5064 30.1934C24.8485 29.9637 25.1767 29.7247 25.7017 29.3122C25.8423 29.1997 26.0532 29.045 26.1704 28.97C26.2876 28.8903 26.5032 28.7356 26.6532 28.6184C27.211 28.1872 27.9892 27.62 28.4673 27.2965C28.7392 27.1137 29.1095 26.8465 29.2876 26.7012C29.6579 26.4012 29.9532 26.1809 30.5251 25.7778C30.9329 25.4918 31.0735 25.3372 31.0314 25.2247C30.9985 25.145 31.2142 24.9668 31.7485 24.634C31.9689 24.4981 32.1564 24.3715 32.1704 24.3575C32.2032 24.3153 33.197 23.6028 33.2204 23.6028C33.2345 23.6028 33.3142 23.5372 33.3985 23.4622C33.4829 23.3825 33.7595 23.1668 34.0173 22.9793C34.2704 22.7918 34.6173 22.5387 34.7907 22.4122C34.9595 22.2903 35.2782 22.0653 35.4985 21.9153C35.7189 21.7653 36.0142 21.5497 36.1548 21.4278C36.6423 21.0293 36.7079 20.9778 36.7548 20.9778C36.7829 20.9778 36.811 20.959 36.8204 20.9403C36.8298 20.9168 36.9939 20.7903 37.186 20.659C37.8517 20.1997 38.4845 19.7356 38.7376 19.5153C39.361 18.9762 39.811 18.6153 40.0923 18.4231C40.261 18.3059 40.4532 18.1653 40.5235 18.109C40.7251 17.9403 41.0157 17.7434 41.461 17.4715C41.6907 17.3356 41.911 17.195 41.9579 17.1575C42.0235 17.1012 42.6985 16.6137 43.186 16.2668C43.6407 15.9434 43.9735 15.695 44.0767 15.6012C44.1423 15.5403 44.2126 15.4934 44.2407 15.4934C44.2689 15.4934 44.3392 15.4465 44.4048 15.3856C44.4704 15.3247 44.672 15.1793 44.8501 15.0575C45.2579 14.7856 45.4267 14.7668 45.6282 14.9825C45.7735 15.1418 45.9845 15.559 46.0314 15.7793C46.0642 15.9481 45.9704 16.1825 45.8439 16.2481C45.6048 16.3793 44.672 17.1247 44.1939 17.57C44.1189 17.6403 43.936 17.7668 43.7954 17.8465C43.5657 17.9778 43.0595 18.3575 42.3845 18.9059C42.2673 18.9997 42.122 19.1122 42.061 19.1497C42.0048 19.1872 41.8501 19.2997 41.7189 19.3981C41.5829 19.4965 41.4001 19.6184 41.311 19.67C41.222 19.7215 41.1142 19.7778 41.0767 19.8059C41.0392 19.8293 40.8048 19.97 40.561 20.1153C40.3173 20.2653 39.961 20.5043 39.7735 20.645C39.586 20.7903 39.2157 21.0575 38.9532 21.2403C38.1282 21.8122 37.3032 22.3981 37.2798 22.4262C37.2329 22.4872 36.5017 23.0215 36.2485 23.1809C35.5782 23.6028 35.4939 23.7106 35.3579 24.3059C35.3251 24.4465 35.2595 24.7137 35.2126 24.8965C35.161 25.0747 35.1235 25.2856 35.1235 25.3653C35.1235 25.4403 35.0673 25.7122 35.0017 25.97C34.936 26.2278 34.8423 26.6028 34.7907 26.809C34.6782 27.2684 34.5798 27.4325 34.397 27.4887C34.322 27.5122 33.4548 27.5403 32.4704 27.5497L30.6892 27.5684L30.4548 27.7278C30.3282 27.8122 30.1314 27.9622 30.0142 28.0559C29.897 28.1497 29.5595 28.3934 29.2642 28.595C28.7345 28.9559 27.8579 29.5981 27.811 29.6543C27.797 29.6731 27.6845 29.7528 27.5532 29.8325C27.4267 29.9122 27.1829 30.0856 27.0142 30.2122C26.522 30.5918 26.0579 30.9247 25.9829 30.9528C25.9032 30.9809 25.472 31.295 25.3689 31.3934C25.3314 31.4262 25.0923 31.5997 24.8345 31.7778C24.5767 31.9559 24.2392 32.209 24.0845 32.3403C23.9298 32.4715 23.7095 32.6497 23.5923 32.734C22.9407 33.2075 22.5845 33.4606 22.186 33.7418C21.7173 34.0747 21.4032 34.3043 21.3048 34.384C21.1782 34.4965 20.6345 34.8997 20.4235 35.045C20.297 35.1293 20.1845 35.2137 20.1704 35.2278C20.1564 35.2465 19.9689 35.3778 19.7485 35.5231C19.2657 35.8418 18.6657 36.2637 18.3235 36.5168C18.1876 36.62 17.8454 36.8684 17.5642 37.07C17.2829 37.2715 16.9689 37.5012 16.8704 37.5856C16.7673 37.67 16.547 37.8293 16.3782 37.9465C16.2095 38.0637 15.8954 38.2887 15.6892 38.4387C15.4782 38.5934 15.1642 38.8231 14.986 38.9497C14.8079 39.0809 14.5032 39.3012 14.311 39.4465C14.1189 39.5918 13.8564 39.7793 13.7251 39.8684C13.5985 39.9575 13.3454 40.1497 13.1626 40.295C12.9845 40.4403 12.5064 40.7872 12.1079 41.0637C11.7095 41.345 11.2454 41.6825 11.0767 41.8137C10.9079 41.945 10.6032 42.1653 10.397 42.3059C10.1907 42.4418 9.91885 42.6434 9.7876 42.7465C9.66104 42.8543 9.4501 43.0137 9.31885 43.0981C9.19229 43.1872 8.93916 43.3981 8.75635 43.5715C8.57823 43.7403 8.34385 43.9418 8.24073 44.0215C8.00166 44.195 7.86573 44.3262 7.8001 44.4481C7.77198 44.5043 7.67354 44.5747 7.57979 44.6028C7.36885 44.6731 7.12979 44.8325 6.86729 45.0762C6.75948 45.1793 6.50635 45.3387 6.30948 45.4278C6.10791 45.5215 5.8126 45.6856 5.64854 45.8028C5.48916 45.9153 5.33916 46.009 5.3251 46.009C5.28291 46.009 4.8001 46.3372 4.63604 46.4778C4.55635 46.5481 4.17666 46.834 3.7876 47.1106C3.40323 47.3918 3.0751 47.6309 3.06104 47.6497C3.04698 47.6684 2.90166 47.7715 2.73291 47.884C2.56416 47.9965 2.23604 48.2309 1.99698 48.409C1.75791 48.5825 1.55635 48.7278 1.54229 48.7278C1.52823 48.7278 1.38291 48.8262 1.22354 48.9434C0.707913 49.3231 0.501663 49.5715 0.698538 49.5715C0.76885 49.5715 2.03448 49.0981 2.40479 48.9293C2.60635 48.8403 3.06104 48.6809 3.71729 48.4747C3.98916 48.3856 4.33604 48.2684 4.49073 48.2122C4.64541 48.1559 4.89854 48.0715 5.05323 48.0247C5.59229 47.8559 6.27198 47.6168 6.3751 47.5606C6.43604 47.5325 6.69854 47.4762 6.96104 47.4387C7.22823 47.4012 7.55635 47.3497 7.69698 47.3215C7.89854 47.284 14.3532 47.2184 17.1704 47.2278H17.6157L17.7189 47.0731C17.7751 46.9934 17.8642 46.7168 17.9157 46.459C17.972 46.2059 18.0329 45.9622 18.0564 45.92C18.0798 45.8778 18.122 45.7278 18.1548 45.5872C18.1829 45.4465 18.2392 45.2356 18.272 45.1184C18.3048 45.0012 18.3892 44.6637 18.4595 44.3684C18.5298 44.0731 18.6329 43.67 18.6939 43.4778C18.7548 43.2856 18.8485 42.9247 18.9001 42.6809C18.9564 42.4372 19.1017 41.8325 19.2282 41.345C19.4392 40.5153 19.5142 40.234 19.7485 39.3059C19.8001 39.1137 19.8939 38.72 19.9595 38.4387C20.0251 38.1528 20.1282 37.7637 20.1892 37.5715C20.2501 37.3793 20.3485 37.0184 20.4001 36.7747C20.5314 36.1793 20.6157 35.8747 20.7001 35.7153C20.7657 35.5934 21.3939 34.9559 22.2564 34.1309C22.8095 33.6059 22.5001 33.6481 26.0064 33.6387C27.6845 33.6387 29.8454 33.6247 30.811 33.6059C32.3532 33.5778 32.5923 33.5825 32.7423 33.6481C33.0142 33.7606 33.0564 33.9012 32.9298 34.2809C32.7985 34.6934 32.6064 35.4153 32.4751 36.0247C32.4142 36.2965 32.2782 36.8543 32.1704 37.2668C32.0626 37.6793 31.9267 38.2278 31.861 38.4856C31.7954 38.7434 31.6923 39.1184 31.6314 39.32C31.5657 39.5168 31.4532 39.9809 31.3735 40.3512C31.2282 41.045 30.9657 42.0387 30.722 42.845C30.6142 43.2059 30.5485 43.3418 30.436 43.4403C30.2626 43.5997 30.2017 43.5997 29.822 43.459C29.6579 43.3981 29.3954 43.3325 29.2407 43.3184C28.9782 43.2903 28.7814 43.2481 27.6235 43.0043C26.0673 42.6762 25.9314 42.6668 25.3314 42.8215C24.7735 42.9622 24.0845 43.7684 23.8735 44.5325C23.672 45.2684 23.7001 46.4215 23.9345 46.8762C24.1032 47.2184 24.5532 47.6684 24.8392 47.7903C25.172 47.9356 25.4767 48.0293 25.7251 48.0715C26.0345 48.1231 26.8314 48.2918 26.9204 48.3247C26.9579 48.3387 27.436 48.4278 27.9751 48.5215C28.5189 48.6153 29.0673 48.709 29.1939 48.7325C29.3251 48.7559 29.7235 48.7793 30.0845 48.7887C30.7267 48.7981 30.7454 48.7934 30.9985 48.6622C31.1392 48.5918 31.2985 48.4887 31.3548 48.4418C31.4064 48.395 31.4626 48.3528 31.4814 48.3528C31.5001 48.3528 31.6454 48.2543 31.8048 48.1372C32.1985 47.8465 32.4235 47.7528 32.9626 47.6497C33.8673 47.4809 34.5939 47.3122 34.9126 47.195C35.2267 47.0825 35.3017 47.0778 36.5298 47.0543C37.2376 47.0403 37.8423 47.0122 37.8704 46.9887C37.8939 46.97 37.9454 46.8059 37.9782 46.6325C38.0626 46.2059 38.1939 45.9434 38.4001 45.7793C38.5689 45.6434 39.0892 45.32 39.7642 44.9309C39.961 44.8137 40.2282 44.645 40.3548 44.5512C40.7251 44.2793 41.1329 44.0122 41.3439 43.9043C41.4517 43.8528 41.611 43.7356 41.6954 43.6512C41.7798 43.5668 41.9767 43.4075 42.1314 43.2903C42.436 43.07 42.5954 42.9106 43.1017 42.3059C43.2892 42.0856 43.486 41.8653 43.5423 41.8137C43.5985 41.7622 43.8142 41.5278 44.0251 41.2887C44.236 41.0543 44.5032 40.7778 44.6251 40.6793C44.8314 40.5059 44.8501 40.5012 45.1735 40.5106C45.5392 40.5247 45.7689 40.5622 46.2329 40.6934C46.4814 40.7684 46.6735 40.7825 47.2595 40.7731C47.6579 40.7637 48.0189 40.7497 48.0704 40.7309C48.1173 40.7168 48.3142 40.5247 48.5064 40.2997C48.7782 39.9856 48.8767 39.8309 48.9329 39.634C48.9751 39.4934 49.0454 39.3012 49.0923 39.2122C49.1392 39.1231 49.2142 38.9403 49.2564 38.8137C49.4767 38.1856 49.5189 38.1668 50.8032 38.0403C52.0595 37.9184 52.3501 37.5387 52.7017 35.5465C52.7485 35.27 52.8235 34.9184 52.861 34.7731C53.011 34.2012 53.2126 33.2215 53.2501 32.884C53.2689 32.6918 53.2829 32.3028 53.2782 32.0262C53.2735 31.5715 53.2595 31.4918 53.1423 31.2622C52.9501 30.8825 52.6829 30.6622 52.022 30.3481C51.7032 30.1981 51.4079 30.0247 51.3704 29.9684C51.3095 29.884 51.2954 29.7153 51.2954 29.0872C51.2954 28.5575 51.2673 28.1122 51.2017 27.6809C51.1501 27.334 51.1079 27.0434 51.1079 27.0387C51.1079 26.9778 50.6954 26.645 50.6017 26.6262C50.3392 26.5747 49.9595 26.4481 49.861 26.3825C49.8048 26.3497 49.7392 26.2325 49.711 26.1293C49.6407 25.8528 49.7298 24.259 49.847 23.6262C49.9314 23.1903 49.9454 23.0122 49.9173 22.4543C49.8845 21.7278 49.8282 20.9497 49.7485 20.134C49.6829 19.4075 49.2845 17.3356 49.0407 16.4075C48.8017 15.4934 48.7689 15.2122 48.886 15.034C49.0173 14.8325 49.5564 14.1997 50.011 13.7075C50.6579 13.0137 50.6954 12.9622 50.6345 12.8872C50.5642 12.8028 50.461 12.8684 49.636 13.4872C49.2985 13.7403 48.9329 13.9887 48.8251 14.0403C48.6282 14.1387 48.436 14.134 48.3517 14.0262C48.3235 13.9934 48.1314 13.5997 47.9157 13.1497L47.5314 12.3293L47.4985 11.4153C47.4657 10.4262 47.4376 10.3043 47.1423 9.70434C46.8423 9.09497 46.5423 8.62622 45.9095 7.79184C45.2439 6.91528 43.4767 5.1059 42.811 4.6184C42.7267 4.55278 42.5345 4.40746 42.3939 4.29028C41.972 3.95278 40.5939 3.02934 40.5001 3.02465C40.4767 3.02465 40.4017 2.98715 40.336 2.93559C40.1579 2.81371 38.7329 2.05903 38.5923 2.01684C38.5267 1.99809 38.3907 1.94653 38.2876 1.89965C37.547 1.56684 36.0423 1.06059 35.2876 0.891839C34.9782 0.821526 34.5985 0.737151 34.4439 0.699651C34.1439 0.634026 33.5485 0.535589 32.8267 0.441839C32.5501 0.404339 31.7392 0.376214 30.6704 0.371526C29.0345 0.362151 28.9173 0.366839 27.9751 0.493401ZM46.6689 18.3622C46.8048 18.4887 46.8657 18.8356 47.0485 20.4153C47.2595 22.2106 47.2782 22.684 47.1985 23.5793C47.1423 24.2168 47.1001 24.4559 46.9876 24.7747C46.9126 24.995 46.8376 25.2387 46.8189 25.3231C46.7814 25.5106 46.7345 25.5481 46.4204 25.6184C46.0454 25.7075 45.6142 25.9231 45.3985 26.1293C45.1642 26.3543 44.9064 26.8184 44.7845 27.2122C44.7095 27.47 44.597 27.9387 44.3532 29.0262C44.3298 29.1387 44.2923 29.3168 44.2642 29.4247C44.2407 29.5372 44.1517 29.9309 44.072 30.3059C43.8892 31.1778 43.7626 31.7356 43.6501 32.2043C43.6032 32.4106 43.486 32.959 43.3923 33.4231C43.1767 34.5012 43.172 34.5059 43.0314 35.0637C42.9657 35.3215 42.886 35.6918 42.8579 35.884C42.8298 36.0762 42.7735 36.3387 42.7407 36.47C42.6657 36.7372 42.5767 37.145 42.4407 37.8575L42.3423 38.3543L42.4407 38.7481C42.5532 39.1934 42.6423 39.3903 42.8532 39.6528C43.1064 39.9715 43.0829 40.0278 42.3751 40.7262C41.6298 41.4668 41.0298 42.0293 40.8798 42.1278C40.8189 42.17 40.711 42.259 40.6314 42.3293C40.5564 42.395 40.3735 42.5356 40.2329 42.634C40.0923 42.7325 39.8626 42.9106 39.7267 43.0278C39.5157 43.2106 39.4454 43.2434 39.2814 43.2434C38.9767 43.2434 38.9439 43.2012 38.9532 42.8543C38.9579 42.6856 38.9954 42.47 39.0376 42.3715C39.1595 42.0903 39.4173 41.1997 39.6517 40.2434C39.8814 39.3059 40.0782 38.5653 40.1157 38.509C40.1392 38.4715 40.172 38.3684 40.1907 38.2793C40.2423 38.0262 40.6032 36.634 40.6267 36.5965C40.636 36.5778 40.7157 36.2637 40.7954 35.9075C40.8751 35.5465 41.0345 34.9137 41.1564 34.5012C41.372 33.7325 41.7329 32.3543 42.0657 31.0325C42.3423 29.9122 42.5532 29.0825 42.7173 28.4543C42.8017 28.145 42.9376 27.5965 43.0267 27.2356C43.1157 26.8747 43.2282 26.4528 43.2751 26.2981C43.3595 26.0262 43.4532 25.6278 43.5564 25.1028C43.5845 24.9622 43.6501 24.6668 43.7017 24.4465C43.9314 23.4856 44.0064 23.1106 44.1235 22.2668C44.1751 21.9059 44.236 21.5684 44.2595 21.5168C44.2829 21.4653 44.3157 21.3012 44.3345 21.1559C44.3532 20.9918 44.4001 20.8512 44.4564 20.7809C44.5126 20.72 44.5829 20.6075 44.6157 20.5231C44.6907 20.345 44.972 19.9606 45.3939 19.4543C45.5626 19.2481 45.8157 18.9153 45.947 18.7184C46.2751 18.2309 46.4392 18.1512 46.6689 18.3622Z" fill="white"/>
<path d="M130.163 12.3293C130.088 12.3668 129.882 12.4934 129.709 12.6199C129.235 12.9621 127.66 14.1153 127.421 14.2981C127.304 14.3871 127.074 14.5606 126.905 14.6824C126.737 14.8043 126.591 14.9168 126.577 14.9309C126.563 14.9496 126.451 15.0293 126.319 15.1184C126.193 15.2074 125.912 15.4043 125.705 15.559C125.494 15.7184 125.129 15.9809 124.89 16.1496C124.651 16.3184 124.351 16.5387 124.215 16.6465C124.084 16.7496 123.765 16.984 123.507 17.1668C123.249 17.3496 122.963 17.5559 122.874 17.6262C122.677 17.7762 121.885 18.3574 121.065 18.9574C120.732 19.2012 120.019 19.7309 119.476 20.134C118.937 20.5371 118.243 21.0481 117.938 21.2731C117.634 21.5028 117.376 21.7137 117.362 21.7465C117.348 21.7793 117.38 21.9668 117.437 22.1684C117.54 22.5574 117.605 23.1106 117.648 24.0012C117.685 24.8309 117.76 25.3184 117.854 25.4028C117.924 25.4684 118.379 25.4778 121.815 25.4778C123.952 25.4824 125.705 25.4731 125.719 25.4637C125.762 25.4215 125.827 24.8684 125.879 24.1278C125.959 22.9606 125.893 21.9434 125.663 20.7199C125.41 19.3887 125.429 18.6668 125.734 18.0481C125.944 17.6168 126.502 16.7496 126.784 16.4074C126.891 16.2762 127.018 16.1168 127.06 16.0465C127.154 15.8965 127.632 15.3012 128.068 14.7903C128.237 14.5981 128.823 13.984 129.371 13.4262C130.416 12.3668 130.58 12.1418 130.163 12.3293Z" fill="white"/>
<path d="M93.6 12.3997C93.5859 12.4231 93.539 12.4465 93.5015 12.4465C93.4406 12.4465 93.1734 12.6106 93.1078 12.6856C93.0937 12.6997 92.9812 12.784 92.85 12.8731C92.4796 13.1262 91.0171 14.2137 90.914 14.3122C90.8765 14.3403 90.8062 14.3918 90.75 14.4247C90.6937 14.4528 90.4078 14.659 90.1125 14.8793C89.8171 15.0997 89.475 15.3575 89.3531 15.4465C89.2265 15.5356 88.95 15.7372 88.7437 15.8918C88.125 16.3465 88.1109 16.3559 87.9703 16.4543C87.8953 16.5012 87.7453 16.609 87.6421 16.6887C87.5343 16.7637 87.389 16.8715 87.3187 16.9231C87.0375 17.1293 86.9203 17.2137 86.6812 17.3965C86.2359 17.7293 84.3421 19.1215 84.1171 19.2809C83.9953 19.3606 83.864 19.459 83.8218 19.4918C83.7843 19.52 83.6765 19.5997 83.5875 19.6653C83.4984 19.7262 83.4093 19.7965 83.3812 19.8153C83.3578 19.8387 83.0203 20.0778 82.6312 20.3497C81.075 21.4418 80.7703 21.6903 80.8031 21.8403C80.8125 21.8965 80.85 22.084 80.8921 22.2668C81.0656 23.0918 81.1125 23.4528 81.15 24.3293C81.1734 24.8918 81.2109 25.309 81.2437 25.3747L81.3 25.4778H85.1437C87.7031 25.4778 89.0203 25.4637 89.0812 25.4309C89.1328 25.4028 89.1703 25.3325 89.1703 25.2622C89.1703 25.1965 89.2078 25.0793 89.25 24.995C89.3203 24.8637 89.3296 24.6715 89.3343 23.4387C89.3343 22.4356 89.3156 21.9434 89.2687 21.7278C89.2359 21.559 89.189 21.3059 89.1703 21.1653C89.1468 21.0247 89.0859 20.6637 89.0296 20.3684C88.9593 19.9934 88.9312 19.6465 88.9312 19.22C88.9312 18.6622 88.9453 18.5778 89.0671 18.259C89.2734 17.7106 90.2109 16.3512 91.1578 15.2122C91.6453 14.6309 91.8281 14.434 92.714 13.5247C93.5109 12.7137 93.764 12.4372 93.764 12.3809C93.764 12.334 93.6328 12.3481 93.6 12.3997Z" fill="white"/>
<path d="M77.0912 13.8528C76.5897 13.8903 75.7084 14.0122 74.8975 14.1622C74.41 14.2512 72.91 14.6028 72.7881 14.6543C72.7365 14.6778 72.535 14.7481 72.3428 14.809C71.635 15.0387 70.3225 15.5872 69.8818 15.8403C69.7787 15.9012 69.5256 16.0418 69.3193 16.1497C68.4709 16.6043 67.3834 17.3215 66.6475 17.9075C66.4131 18.095 66.16 18.259 66.0803 18.2731C65.8693 18.3153 65.7147 18.4231 64.9881 19.0512C63.2678 20.5418 62.0772 22.22 61.2568 24.3293C61.135 24.6387 61.0178 25.0184 60.999 25.1731C60.9803 25.3278 60.91 25.5997 60.849 25.7825C60.7834 25.9606 60.6522 26.3825 60.5537 26.72C60.4553 27.0528 60.3053 27.5356 60.2209 27.7887C60.1365 28.0418 60.0287 28.3934 59.9912 28.5622C59.949 28.7356 59.8975 28.9278 59.874 28.9934C59.8365 29.0965 59.5787 29.945 59.3772 30.5965C59.3397 30.7184 59.3115 30.8637 59.3115 30.9247C59.3068 30.9856 59.2787 31.084 59.2412 31.1497C59.2037 31.2153 59.1756 31.3043 59.1709 31.3512C59.1709 31.4262 59.035 31.7356 58.899 31.97C58.8709 32.0215 58.7678 32.2325 58.674 32.4387C58.5803 32.645 58.3506 33.0575 58.1631 33.3528C57.9756 33.6481 57.7178 34.0981 57.5865 34.3465C57.3475 34.7965 56.785 35.7434 56.7287 35.7903C56.7147 35.8043 56.6162 35.9497 56.5131 36.1184C56.41 36.2872 56.2553 36.5403 56.1709 36.6809C56.0818 36.8215 55.9178 37.0372 55.8006 37.1637C55.6881 37.2856 55.5475 37.4543 55.4912 37.5387C55.435 37.6184 55.3318 37.7731 55.2615 37.8809C55.1959 37.984 55.0975 38.1153 55.0459 38.1715C54.8115 38.42 54.6334 38.7903 54.7412 38.7903C54.8256 38.7903 55.2615 38.5184 55.3881 38.3872C55.4678 38.2981 55.5615 38.2278 55.5943 38.2278C55.6272 38.2278 55.6553 38.209 55.6553 38.1903C55.6553 38.1715 55.749 38.0918 55.8662 38.0215C55.9834 37.9465 56.0772 37.8715 56.0772 37.8481C56.0772 37.8293 56.1943 37.745 56.335 37.6653C56.4756 37.5856 56.6209 37.4918 56.6537 37.459C56.6818 37.4309 56.785 37.3559 56.874 37.2903C56.9631 37.2293 57.1553 37.07 57.3006 36.9387C57.4459 36.8028 57.6803 36.6293 57.8209 36.5497C57.9615 36.47 58.1068 36.3762 58.1443 36.3434C58.1818 36.3059 58.5287 36.0622 58.9131 35.7997C59.6912 35.2747 59.8131 35.1762 60.3568 34.6653C60.5584 34.4731 60.7834 34.2856 60.8537 34.2481C60.9193 34.2153 61.0272 34.1403 61.0928 34.0793C61.3647 33.8356 61.9975 33.395 62.499 33.095C63.3522 32.5887 63.699 32.3637 64.0647 32.0825C64.2475 31.9372 64.4443 31.7965 64.5053 31.7637C64.5615 31.7356 64.7397 31.609 64.9037 31.4825C65.0678 31.3606 65.3162 31.1825 65.4568 31.0887C65.5975 30.995 65.7568 30.8778 65.8084 30.8262C65.8693 30.7747 65.9725 30.7372 66.0568 30.7372C66.1553 30.7418 66.2631 30.6903 66.399 30.5778C66.5115 30.4887 66.7647 30.3012 66.9709 30.1606C67.1725 30.02 67.4162 29.8512 67.51 29.7809C67.6037 29.7106 67.7678 29.5981 67.8756 29.5231C68.11 29.3637 68.185 29.2372 68.2647 28.8997C68.4428 28.1309 68.8459 26.7997 68.9912 26.509C69.024 26.4434 69.0709 26.3403 69.099 26.2747C69.1318 26.209 69.2256 25.9934 69.3147 25.7965C69.4037 25.5997 69.4975 25.3231 69.5303 25.1825C69.5584 25.0418 69.6334 24.859 69.6943 24.77C69.76 24.6856 69.8115 24.6012 69.8115 24.5825C69.8115 24.5309 70.3225 23.7153 70.5287 23.4387C70.9553 22.8622 71.4615 22.2997 71.8506 21.9622C72.2772 21.5965 72.699 21.259 72.7412 21.259C72.7506 21.259 72.8537 21.1934 72.9662 21.1184C73.0834 21.0387 73.1912 20.9778 73.2147 20.9778C73.2334 20.9778 73.285 20.9497 73.3225 20.9122C73.4115 20.8418 74.1053 20.5653 74.56 20.42C75.0615 20.2653 75.9334 20.1247 76.3975 20.12C76.9975 20.12 77.335 20.2184 77.5647 20.4668C77.7428 20.659 77.7475 20.659 77.7193 20.9637C77.7006 21.2403 77.6725 21.3059 77.4428 21.634C77.3068 21.8356 77.0256 22.1731 76.824 22.384C76.3178 22.9137 76.4584 23.0168 77.0537 22.5575C77.5318 22.1918 77.9912 21.845 78.0943 21.7747C78.1506 21.7372 78.4459 21.5356 78.7506 21.334C79.0553 21.1278 79.3272 20.9356 79.3553 20.9122C79.3834 20.884 79.5287 20.7762 79.6787 20.6731C79.8287 20.57 80.0162 20.4293 80.0959 20.3637C80.1756 20.2981 80.4193 20.12 80.6397 19.97C80.86 19.82 81.1459 19.6137 81.2725 19.5153C81.4975 19.3372 82.2147 18.8075 83.1006 18.1653C83.3303 17.9965 83.6209 17.7856 83.7428 17.6965C84.0006 17.5043 84.3897 17.2278 85.3272 16.5575C86.0678 16.0325 86.1334 15.9481 85.9037 15.784C85.7725 15.6903 84.8256 15.2215 84.2959 14.9825C83.874 14.7903 82.7818 14.42 82.4443 14.3497C82.3693 14.3309 82.1022 14.27 81.8584 14.2043C80.5459 13.8715 78.7928 13.7403 77.0912 13.8528Z" fill="white"/>
<path d="M113.71 13.834C112.669 13.9184 111.029 14.1997 110.03 14.4668C108.61 14.8418 106.618 15.6715 105.554 16.3278C105.427 16.4075 105.183 16.5528 105.015 16.6512C104.64 16.8668 103.993 17.2981 103.491 17.6637C103.285 17.8137 103.069 17.9731 103.008 18.0153C102.948 18.0622 102.854 18.1325 102.798 18.184C102.741 18.2309 102.483 18.4418 102.226 18.6528C101.373 19.3418 100.468 20.2653 99.8351 21.095C99.7319 21.2262 99.6007 21.3997 99.5397 21.4747C99.3663 21.6997 99.0616 22.1872 98.8741 22.5434C98.7804 22.7262 98.6632 22.9372 98.621 23.0168C98.3585 23.495 98.0257 24.3575 97.8804 24.9387C97.8288 25.145 97.7491 25.459 97.7022 25.6418C97.5616 26.195 97.0976 27.7137 96.8538 28.4309C96.7272 28.8059 96.5913 29.2043 96.5585 29.3215C96.521 29.4387 96.4226 29.7106 96.3288 29.9309C96.2397 30.1512 96.0804 30.559 95.9726 30.845C95.8647 31.1262 95.7476 31.4215 95.7101 31.5012C95.6772 31.5762 95.5554 31.8622 95.4335 32.134C95.1569 32.7762 94.6601 33.7559 94.271 34.4309C94.1022 34.7262 93.8679 35.1387 93.746 35.345C93.6288 35.5512 93.5116 35.7481 93.4835 35.7762C93.4554 35.809 93.1788 36.2215 92.8647 36.6903C92.3772 37.4262 92.0772 37.8528 91.9835 37.9465C91.946 37.984 91.5851 38.4715 91.5007 38.6028C91.4022 38.7481 91.3976 38.8372 91.4913 38.8372C91.5851 38.8372 91.7163 38.7528 92.2647 38.3403C92.5085 38.1575 92.8882 37.8856 93.1085 37.7356C93.3288 37.5856 93.5163 37.445 93.5304 37.4262C93.5632 37.384 94.1069 36.9856 94.4585 36.7512C94.496 36.7231 94.5851 36.6528 94.6507 36.5965C94.7163 36.5356 94.9413 36.3715 95.1476 36.2309C95.7851 35.7997 96.6616 35.1387 97.3319 34.595C97.7866 34.22 97.8944 34.145 98.6304 33.6575C99.1601 33.3106 100.06 32.6684 100.773 32.1387C100.979 31.984 101.316 31.7403 101.523 31.5997C101.729 31.459 101.94 31.3043 101.991 31.2575C102.043 31.2106 102.244 31.07 102.437 30.9387C102.629 30.8122 102.858 30.6387 102.948 30.5543C103.037 30.4747 103.191 30.3575 103.294 30.2965C103.538 30.1512 104.565 29.3918 104.621 29.3122C104.668 29.2559 104.808 28.7965 104.991 28.1262C105.104 27.7184 105.437 26.6872 105.493 26.584C105.516 26.5372 105.591 26.3543 105.657 26.1856C105.718 26.0168 105.812 25.8106 105.858 25.7356C105.905 25.6559 105.976 25.4637 106.018 25.3043C106.079 25.07 106.299 24.6059 106.505 24.2778C106.768 23.8559 107.293 23.1106 107.443 22.9465C107.551 22.8293 107.715 22.6418 107.813 22.5247C108.01 22.2856 108.741 21.62 108.994 21.4512C109.088 21.3856 109.173 21.3247 109.187 21.3059C109.262 21.2168 109.88 20.87 110.274 20.7059C110.846 20.4622 111.46 20.2981 112.173 20.2043C112.843 20.12 113.148 20.1153 113.546 20.2043C113.799 20.2559 113.879 20.2981 114.024 20.4575C114.179 20.6215 114.202 20.6731 114.202 20.87C114.202 21.259 113.912 21.7325 113.19 22.5293C113.002 22.7309 112.899 22.9278 112.951 22.9747C112.993 23.0168 113.265 22.8528 113.635 22.5622C113.832 22.4075 114.062 22.2387 114.146 22.1872C114.226 22.1356 114.296 22.0747 114.296 22.0559C114.296 22.0325 114.38 21.9668 114.483 21.9106C114.587 21.8497 114.671 21.7887 114.671 21.7653C114.671 21.7465 114.69 21.7278 114.718 21.7278C114.741 21.7278 114.802 21.695 114.844 21.6575C114.929 21.5918 115.43 21.2262 115.749 20.9965C115.927 20.8747 117.315 19.8668 118.046 19.3325C119.832 18.034 121.28 16.9887 121.463 16.8762C121.505 16.8481 121.548 16.82 121.562 16.8059C121.613 16.7497 122.251 16.2997 122.344 16.2481C122.49 16.1731 122.598 15.9575 122.541 15.859C122.518 15.8168 122.419 15.7418 122.326 15.6903C122.227 15.6387 122.044 15.545 121.923 15.4793C121.548 15.2778 120.563 14.8278 120.39 14.7809C120.301 14.7575 120.165 14.7059 120.085 14.6684C119.682 14.4856 118.266 14.1434 117.273 13.9887C116.494 13.8668 116.227 13.8481 115.163 13.834C114.493 13.8247 113.841 13.8247 113.71 13.834Z" fill="white"/>
<path d="M33.0567 25.7307C32.9208 25.8386 32.8786 25.9042 32.888 25.9932C32.9067 26.2323 33.3895 26.1479 33.4786 25.8901C33.5583 25.6698 33.5442 25.6323 33.3848 25.6089C33.277 25.5901 33.1973 25.6182 33.0567 25.7307Z" fill="white"/>
<path d="M126.084 29.0307C126.009 29.0823 125.564 29.401 125.1 29.7526C124.636 30.0995 124.129 30.4698 123.975 30.5776C123.548 30.8729 122.873 31.3745 122.667 31.5385C122.568 31.6229 122.451 31.7073 122.409 31.7307C122.367 31.7542 122.325 31.787 122.311 31.801C122.296 31.8198 122.109 31.9651 121.889 32.1245C121.546 32.3729 120.014 33.5073 119.77 33.6901C119.723 33.7229 119.582 33.826 119.451 33.9151C119.32 34.0042 119.062 34.1964 118.875 34.3417C118.687 34.487 118.359 34.726 118.139 34.876C117.918 35.026 117.609 35.251 117.45 35.3776C117.29 35.4995 117.145 35.6026 117.131 35.6026C117.112 35.6026 117.075 35.6307 117.037 35.6589C117.004 35.6917 116.742 35.8886 116.451 36.0948C116.165 36.3011 115.767 36.5917 115.57 36.7417C115.368 36.8917 115.092 37.0886 114.951 37.1823C114.314 37.6042 114.154 37.8011 114.154 38.1854C114.154 38.3917 114.042 38.8136 113.836 39.3995C113.723 39.7136 113.667 39.7932 113.325 40.1354C112.861 40.5948 112.528 40.7682 111.867 40.8995C111.618 40.9511 111.346 41.0073 111.271 41.0307C111.192 41.0542 110.939 41.087 110.709 41.1057C109.589 41.1901 109.354 41.2745 108.52 41.912C108.384 42.0151 108 42.3011 107.662 42.5401C107.329 42.7839 106.959 43.0557 106.842 43.1495C106.725 43.2432 106.514 43.3932 106.373 43.4776C106.232 43.562 106.064 43.6792 105.998 43.7401C105.932 43.7964 105.637 44.0167 105.342 44.2323C104.765 44.6448 104.217 45.0432 103.682 45.4323C103.5 45.5636 103.232 45.7557 103.092 45.8542C102.951 45.9526 102.829 46.0464 102.82 46.0651C102.811 46.0886 102.778 46.1026 102.745 46.1026C102.712 46.1026 102.628 46.1682 102.548 46.2479C102.473 46.3323 102.295 46.4682 102.154 46.562C101.906 46.7214 101.362 47.1245 101.311 47.1807C101.296 47.1948 101.193 47.2651 101.076 47.3307C100.959 47.3964 100.814 47.5089 100.753 47.5745C100.687 47.6401 100.621 47.6964 100.603 47.6964C100.579 47.6964 100.481 47.7526 100.382 47.8229C100.101 48.0245 99.6512 48.3667 99.623 48.3995C99.609 48.4136 99.4215 48.5495 99.2012 48.6948C98.5215 49.1448 98.0762 49.5151 98.0762 49.6229C98.0762 49.6651 98.4043 49.5526 98.7559 49.3886C98.9105 49.3136 99.2387 49.1776 99.4824 49.0792C99.7262 48.9807 99.9512 48.887 99.9746 48.8729C100.003 48.8542 100.157 48.7839 100.326 48.7182C101.409 48.287 101.723 48.1651 101.77 48.1651C101.803 48.1651 101.864 48.1464 101.911 48.1229C102.037 48.0526 102.839 47.8042 103.35 47.6729C104.17 47.4667 104.512 47.4386 105.407 47.5042C106.823 47.6026 109.139 47.5557 110.146 47.4104C111.421 47.2229 111.736 47.1714 112.223 47.0636C113.418 46.8057 114.314 46.5432 115.467 46.1167C116.02 45.9151 117.379 45.3151 117.787 45.0948C118.139 44.9026 118.631 44.6167 118.851 44.4807C118.968 44.4057 119.24 44.2417 119.446 44.1151C119.657 43.9886 119.85 43.8573 119.878 43.8245C119.906 43.787 119.957 43.7589 119.986 43.7589C120.014 43.7589 120.164 43.6604 120.318 43.5339C120.473 43.412 120.675 43.262 120.773 43.1964C120.975 43.0604 121.186 42.7557 121.186 42.587C121.19 42.4464 121.27 42.0854 121.457 41.3682C121.537 41.0729 121.631 40.6604 121.673 40.4542C121.715 40.2479 121.79 39.9198 121.842 39.7276C122.071 38.8464 122.376 37.6042 122.461 37.1964C122.554 36.7464 122.568 36.6901 122.714 36.0948C123.051 34.6979 123.867 32.7104 124.575 31.562C125.043 30.7932 125.784 29.7245 125.925 29.6026C125.995 29.5417 126.295 29.0589 126.295 29.0073C126.295 28.9276 126.248 28.9323 126.084 29.0307Z" fill="white"/>
<path d="M89.1275 29.359C88.6681 29.6731 88.415 29.8559 87.9087 30.2356C87.7025 30.3903 87.3837 30.62 87.2009 30.7512C87.0181 30.8778 86.69 31.1215 86.465 31.2903C86.2447 31.459 85.9353 31.6887 85.7759 31.8012C85.6165 31.9184 85.0822 32.3075 84.5853 32.6684C82.8931 33.9012 82.7103 34.0325 82.579 34.1356C82.504 34.1918 82.2744 34.3606 82.0681 34.5106C81.8619 34.6653 81.6603 34.82 81.6228 34.8622C81.5806 34.8997 81.2759 35.12 80.9431 35.345C80.2447 35.8184 79.9869 36.0106 79.2322 36.6247C78.529 37.1965 78.5806 37.159 78.365 37.2903C77.8775 37.5903 77.704 37.7872 77.6619 38.0918C77.615 38.4668 77.4228 39.259 77.3337 39.4465C77.0712 40.0043 76.8134 40.2668 76.2087 40.5668C75.9509 40.6934 75.6556 40.8153 75.5525 40.8293C75.4494 40.8481 75.154 40.8997 74.8962 40.9512C74.6384 40.9981 74.2072 41.0731 73.9353 41.1106C73.1712 41.2231 72.9697 41.3028 72.6837 41.5981C72.4119 41.8747 72.3744 41.9778 72.5431 41.9778C72.604 41.9778 72.7025 42.0247 72.7634 42.0809C72.965 42.2731 73.1478 42.395 73.204 42.3715C73.2322 42.3622 73.2978 42.4278 73.3494 42.5215C73.4525 42.7184 73.8134 43.1028 73.8884 43.1028C73.9119 43.1028 73.9353 43.1637 73.9353 43.2434C73.9353 43.3184 73.954 43.384 73.9775 43.384C74.0009 43.384 74.029 43.4262 74.0431 43.4778C74.0572 43.5434 74.1087 43.5715 74.1884 43.5715C74.254 43.5715 74.3103 43.5997 74.3103 43.6278C74.3103 43.6981 74.5634 43.8528 74.6665 43.8528C74.7744 43.8528 75.0837 44.1856 75.0181 44.2231C74.9478 44.27 75.0181 44.3309 75.2619 44.4293C75.3556 44.4715 75.4353 44.5278 75.4353 44.5512C75.4353 44.5793 75.4775 44.6028 75.529 44.6028C75.6322 44.6028 75.7775 44.7247 75.829 44.8606C75.8478 44.9168 75.8759 44.9309 75.8947 44.9028C75.9134 44.8747 75.9931 44.8184 76.0775 44.7762C76.2134 44.7012 76.2228 44.6872 76.1994 44.5043L76.1712 44.3075L76.5181 44.3403C76.7056 44.359 76.9165 44.4059 76.9822 44.4387C77.1837 44.5465 77.5165 44.8653 77.615 45.0528C77.704 45.2309 77.915 45.4465 78.0462 45.4934C78.079 45.5075 78.1915 45.6247 78.2853 45.7512L78.4634 45.9856L78.8384 45.9809C79.1572 45.9762 79.265 45.9481 79.6072 45.7981C79.8275 45.6997 80.1978 45.545 80.4275 45.4465C81.004 45.2028 82.115 44.6403 82.1853 44.5512C82.1994 44.5372 82.2837 44.4856 82.3728 44.4387C82.5228 44.3637 84.1681 43.2762 84.3462 43.1403C84.4822 43.0278 84.5665 42.845 84.6837 42.3997C84.8431 41.7903 85.0728 40.8012 85.1384 40.4356C85.1665 40.2715 85.2228 40.07 85.2603 39.9903C85.2978 39.9106 85.3681 39.6434 85.415 39.3997C85.5978 38.4715 85.8978 37.1684 85.9587 37.0231C85.9962 36.9387 86.0478 36.7278 86.0759 36.5543C86.1884 35.8418 86.8822 33.7793 87.2572 33.0528C87.3369 32.8934 87.4212 32.7293 87.44 32.6872C87.6837 32.1903 88.1244 31.3747 88.2134 31.2575C88.2744 31.1778 88.3259 31.0981 88.3259 31.084C88.3259 31.0465 89.1087 29.9168 89.2119 29.8043C89.4134 29.5934 89.6197 29.1903 89.5587 29.1293C89.5353 29.1059 89.3431 29.209 89.1275 29.359Z" fill="white"/>
<path d="M74.1698 29.5933C74.0198 29.6167 73.9542 29.673 73.9214 29.8042C73.9073 29.8605 73.8089 30.212 73.701 30.587C73.5932 30.962 73.4667 31.4355 73.4198 31.6417C73.3682 31.848 73.2745 32.2277 73.2042 32.4855C73.101 32.8886 72.9839 33.3527 72.8104 34.0558C72.787 34.1449 72.726 34.3839 72.6698 34.5902C72.6135 34.7917 72.576 35.012 72.5854 35.0824L72.5995 35.2042L74.076 35.2277C75.5479 35.2511 75.5573 35.2511 75.787 35.373C75.9792 35.4714 76.0307 35.5183 76.0635 35.6636C76.1104 35.8558 76.026 36.1089 75.8432 36.3105C75.787 36.3714 75.651 36.5402 75.5432 36.6808C75.4354 36.8214 75.2807 37.0136 75.201 37.1027C74.8776 37.4683 74.6807 37.8152 74.7698 37.8714C74.8026 37.8902 75.4729 37.5011 75.5292 37.4261C75.5432 37.412 75.6932 37.2808 75.862 37.1449C76.0354 37.0042 76.2464 36.8308 76.3307 36.7605C76.7807 36.3902 78.1729 35.3683 78.9042 34.8761C80.1135 34.0605 80.2964 33.9292 80.4745 33.7605C80.7042 33.5449 81.1354 33.2355 81.9089 32.7199C82.237 32.5042 82.551 32.2886 82.612 32.237C82.7385 32.1292 83.0432 31.9042 83.5729 31.5245C83.7698 31.3839 84.2292 31.0464 84.5901 30.7792C84.951 30.512 85.3542 30.2261 85.4854 30.1417C85.7901 29.9449 86.0995 29.6589 86.0573 29.612C86.0245 29.5792 74.4042 29.5605 74.1698 29.5933Z" fill="white"/>
<path d="M111.989 29.5933L110.644 29.6027L110.531 29.7574C110.466 29.837 110.405 29.9683 110.391 30.048C110.377 30.123 110.32 30.3574 110.264 30.5636C110.208 30.7699 110.133 31.1074 110.091 31.3136C110.053 31.5199 109.978 31.8339 109.927 32.0167C109.87 32.1949 109.814 32.4058 109.791 32.4855C109.772 32.5605 109.659 33.0058 109.538 33.4699C109.116 35.087 109.125 35.0402 109.219 35.148C109.298 35.237 109.345 35.237 110.334 35.2089C111.455 35.1808 112.139 35.223 112.369 35.3449C112.453 35.387 112.552 35.4902 112.594 35.5792C112.734 35.8745 112.598 36.1277 111.741 37.173C111.338 37.6652 111.323 37.8808 111.717 37.6183C111.783 37.5714 111.877 37.5105 111.933 37.473C111.984 37.4355 112.27 37.2245 112.566 37.0042C112.861 36.7839 113.142 36.5777 113.194 36.5495C113.245 36.5214 113.438 36.3808 113.616 36.2355C113.798 36.0902 114.136 35.8417 114.366 35.687C114.6 35.5277 114.811 35.373 114.839 35.3449C114.961 35.237 115.088 35.1433 115.397 34.9324C115.58 34.8105 115.819 34.637 115.936 34.548C116.053 34.4589 116.302 34.2761 116.489 34.1449C116.677 34.0136 117.038 33.7511 117.286 33.5636C118.397 32.7105 118.556 32.5933 118.889 32.373C119.081 32.2464 119.475 31.9699 119.756 31.7636C120.042 31.5527 120.389 31.3042 120.53 31.2058C120.67 31.112 120.956 30.9058 121.167 30.7511C121.373 30.5964 121.636 30.4042 121.744 30.3292C121.852 30.2495 122.002 30.1417 122.077 30.0808C122.147 30.0245 122.222 29.9777 122.236 29.9777C122.25 29.9777 122.33 29.9214 122.405 29.8511C122.55 29.7245 122.588 29.6074 122.489 29.598C122.334 29.5886 113.175 29.5792 111.989 29.5933Z" fill="white"/>
<path d="M67.2559 31.7683C67.1809 31.8246 67.1059 31.8855 67.0918 31.9043C67.0777 31.923 66.9934 31.984 66.8996 32.0449C66.684 32.1949 66.2762 32.523 66.2574 32.5652C66.248 32.5886 66.1684 32.6027 66.084 32.6027C65.9855 32.6027 65.8449 32.659 65.6996 32.7527C65.2918 33.0293 64.3543 33.7558 64.1105 33.9902C63.7027 34.384 63.1871 34.8293 62.9434 34.998C62.8168 35.0871 62.6949 35.1761 62.6762 35.1996C62.6387 35.2511 62.3059 35.4574 61.8043 35.7433C61.4246 35.9543 61.2371 36.0855 60.8152 36.4136C60.6605 36.5402 60.3887 36.7277 60.2105 36.8355C59.798 37.0933 59.6527 37.1965 59.498 37.3371C59.1934 37.623 58.8465 37.8996 58.6027 38.0543C58.4574 38.148 58.3262 38.2558 58.3074 38.298C58.2934 38.3402 58.2793 38.584 58.2793 38.8418C58.2793 39.2261 58.3027 39.3761 58.4199 39.7371C58.4949 39.9715 58.5465 40.1824 58.5324 40.2058C58.4996 40.2574 58.7527 41.0449 58.9449 41.4855C59.2871 42.2683 59.3668 42.4183 59.709 42.9199C59.9105 43.2152 60.1824 43.5715 60.3137 43.7168C60.4449 43.8574 60.6277 44.059 60.7168 44.1621C60.8105 44.2605 61.0309 44.4715 61.209 44.6308C61.8793 45.2168 61.8371 45.184 62.6668 45.6996C63.2012 46.0277 63.2809 46.0324 63.6746 45.7371C63.8387 45.6152 64.1434 45.409 64.3496 45.2824C64.7152 45.0574 65.1371 44.7621 65.6152 44.4058C65.7465 44.3074 65.8918 44.2277 65.948 44.2277C66.0699 44.2277 66.623 43.8668 67.4902 43.2199C67.6965 43.0652 67.9355 42.8918 68.0199 42.8355C68.1043 42.7746 68.2168 42.6855 68.2684 42.6386C68.3246 42.5871 68.5121 42.4465 68.6949 42.3199C68.873 42.198 69.1871 41.959 69.3887 41.7902C69.5949 41.6215 69.8246 41.4386 69.9043 41.3777C70.0449 41.2699 70.0965 41.0777 69.998 41.0168C69.9746 41.0027 69.8293 40.9558 69.684 40.9183C69.534 40.8808 69.384 40.8199 69.3418 40.7871C69.3043 40.7496 69.1684 40.6652 69.0371 40.5996C68.3902 40.2527 67.9918 39.934 67.6402 39.4746C67.3121 39.0527 67.1527 38.8043 67.0355 38.5465C66.7824 37.984 66.6184 36.8449 66.7168 36.2777C66.7449 36.0996 66.7871 35.7949 66.8152 35.6027C66.8762 35.1105 67.1902 33.6246 67.373 32.9543C67.5793 32.1902 67.6543 31.7777 67.5887 31.7121C67.5184 31.6418 67.4105 31.6558 67.2559 31.7683Z" fill="white"/>
<path d="M103.926 31.7027C103.884 31.7215 103.781 31.8012 103.692 31.8762C103.607 31.9559 103.397 32.1199 103.223 32.2418C103.054 32.3637 102.886 32.4902 102.848 32.523C102.815 32.5559 102.661 32.673 102.506 32.7809C102.351 32.8887 102.145 33.034 102.051 33.1043C101.892 33.2262 101.297 33.6574 100.795 34.0184C100.087 34.5293 98.784 35.5137 98.77 35.5465C98.7653 35.5699 98.6387 35.6637 98.4981 35.7574C97.9965 36.0902 97.9215 36.1418 97.8184 36.2355C97.7622 36.2871 97.5184 36.4652 97.2747 36.6293C97.0309 36.7934 96.7309 37.0043 96.5997 37.1027C96.4731 37.1965 96.2293 37.3746 96.0606 37.4918C95.8918 37.6137 95.7372 37.7309 95.709 37.7496C95.6856 37.7684 95.5356 37.8762 95.3809 37.9887C94.8887 38.3496 94.87 38.4059 95.034 39.1043C95.0856 39.3293 95.1606 39.6855 95.1934 39.8918C95.2684 40.3184 95.5825 41.1996 95.9247 41.9543C96.0231 42.1699 96.4309 42.8168 96.6418 43.098C96.7497 43.234 96.8622 43.3934 96.8997 43.4496C97.0825 43.7121 97.8747 44.5512 98.2825 44.9074C98.3997 45.0105 99.0606 45.4934 99.084 45.4934C99.0981 45.4934 99.2106 45.5684 99.3372 45.6574C99.6653 45.8965 99.97 46.0184 100.125 45.9809C100.265 45.9434 100.462 45.8121 100.795 45.5262C100.912 45.423 101.072 45.3105 101.147 45.2684C101.226 45.2309 101.662 44.9215 102.117 44.584C102.572 44.2465 103.064 43.8855 103.214 43.7824C103.359 43.6793 103.504 43.5715 103.532 43.548C103.561 43.5199 103.692 43.4262 103.818 43.3371C103.95 43.248 104.179 43.0793 104.334 42.9574C104.489 42.8402 104.709 42.6809 104.826 42.6105C104.943 42.5355 105.154 42.3809 105.295 42.2637C105.44 42.1465 105.618 42.0059 105.689 41.9543C106.073 41.6824 106.504 41.3637 106.631 41.2559C106.828 41.0918 106.757 40.998 106.368 40.9043C106.204 40.8621 106.017 40.7918 105.951 40.7496C105.886 40.7074 105.773 40.6465 105.693 40.609C105.276 40.4309 104.573 39.8918 104.278 39.5309C103.659 38.7668 103.359 37.8809 103.298 36.634C103.265 35.8887 103.312 35.4574 103.537 34.4777C103.603 34.2059 103.673 33.859 103.701 33.7043C103.725 33.5496 103.79 33.3105 103.842 33.1746C103.893 33.0387 103.936 32.8793 103.936 32.8137C103.936 32.7527 103.968 32.5793 104.011 32.4293C104.184 31.8012 104.193 31.7543 104.118 31.7074C104.043 31.6605 104.034 31.6605 103.926 31.7027Z" fill="white"/>
<path d="M72.0375 42.1652C71.85 42.212 70.9828 42.6198 70.875 42.7136C70.8 42.7886 70.636 42.8964 70.1157 43.2198C69.9938 43.2948 69.8063 43.4402 69.6985 43.5339C69.5953 43.6277 69.4266 43.7542 69.3282 43.8152C69.1782 43.9089 68.2547 44.5698 67.7485 44.9495C67.6594 45.0198 67.3313 45.2542 67.0219 45.4792C66.7125 45.6995 66.4078 45.9292 66.3375 45.9902C66.2719 46.0558 66.1641 46.1027 66.0797 46.1027C65.9532 46.1027 65.6391 46.2714 65.5219 46.4027C65.4985 46.4308 65.3203 46.5573 65.1328 46.6886C64.9453 46.8152 64.7766 46.9464 64.7578 46.9745C64.725 47.0308 64.5188 47.1995 64.186 47.4386C64.0969 47.5042 63.8953 47.6495 63.7407 47.7667C63.586 47.8839 63.361 48.0292 63.2344 48.0948C63.1125 48.1605 62.8828 48.3245 62.7188 48.4605C62.5594 48.5964 62.325 48.7792 62.1938 48.8683C61.8 49.1402 61.5094 49.4027 61.5188 49.4917C61.5188 49.5292 61.5282 49.5292 61.5469 49.487C61.5563 49.4589 61.5891 49.4448 61.6125 49.4589C61.6407 49.473 61.725 49.4542 61.8094 49.4167C61.8938 49.3792 62.1938 49.262 62.475 49.1589C62.761 49.0558 63.1828 48.873 63.4125 48.7605C64.0828 48.423 65.4797 47.9823 66.6235 47.7433C67.0219 47.6636 67.425 47.5698 67.5141 47.5464C67.7063 47.4855 68.8969 47.4902 69.5297 47.5511C70.6969 47.6636 73.0828 47.5136 74.7328 47.223C75.6375 47.0636 76.711 46.7683 76.7766 46.6558C76.7907 46.6323 76.6828 46.4823 76.5282 46.323C76.3782 46.1636 76.1953 45.948 76.1157 45.8495C76.0407 45.7511 75.8953 45.5917 75.8016 45.4886C75.7032 45.3902 75.6235 45.2917 75.6235 45.2683C75.6235 45.2448 75.5485 45.1652 75.4594 45.0995C75.3657 45.0292 75.2438 44.9261 75.1875 44.8698C75.1313 44.8136 74.9813 44.6823 74.8547 44.5792C74.7328 44.4761 74.5969 44.3542 74.5547 44.3073C74.5125 44.2652 74.4422 44.2277 74.4 44.2277C74.3578 44.2277 74.311 44.1995 74.2969 44.1667C74.2875 44.1339 74.1938 44.0683 74.0953 44.0167C73.9969 43.9652 73.8563 43.8527 73.7766 43.7636C73.6969 43.6792 73.5563 43.5573 73.4532 43.4917C73.3547 43.4308 73.2657 43.3511 73.2516 43.3136C73.2141 43.2198 72.9516 42.9527 72.8016 42.8542C72.7266 42.8073 72.6844 42.7464 72.6985 42.7089C72.7266 42.6386 72.5625 42.5214 72.5157 42.573C72.4969 42.587 72.4641 42.5448 72.4407 42.4745C72.4125 42.4089 72.361 42.3527 72.3235 42.3527C72.2813 42.3527 72.2672 42.3198 72.2813 42.2636C72.3094 42.1558 72.225 42.123 72.0375 42.1652Z" fill="white"/>
</svg>
